<svg width="88" height="88" viewBox="0 0 88 88" fill="none" xmlns="http://www.w3.org/2000/svg">
<path d="M38.8607 22.7771L39.0451 24.5772L39.8111 22.9378L47.4337 6.62399L43.2756 24.0992L42.8541 25.8704L44.1211 24.5628L56.697 11.5835L47.0148 26.7622L46.0261 28.3122L47.6636 27.4764L63.815 19.233L49.6718 30.4781L48.2196 31.6328L50.0554 31.3642L68.028 28.7349L50.9575 34.8434L49.2024 35.4714L51.0363 35.806L68.8932 39.0641L50.7327 39.3836L48.8719 39.4163L50.4986 40.3205L66.3203 49.1153L49.0229 43.6059L47.2625 43.0452L48.4999 44.4172L60.5785 57.8099L46.0147 47.0534L44.5433 45.9666L45.2573 47.6508L52.2754 64.2034L42.0343 49.3539L41.0045 47.8607L41.1238 49.6707L42.3048 67.5897L37.512 50.2592L37.0301 48.5166L36.5482 50.2592L31.7553 67.5897L32.9364 49.6707L33.0557 47.8607L32.0259 49.3539L21.7848 64.2034L28.8028 47.6508L29.5169 45.9666L28.0455 47.0534L13.4817 57.8099L25.5603 44.4172L26.7977 43.0452L25.0373 43.6059L7.73984 49.1153L23.5616 40.3205L25.1882 39.4163L23.3275 39.3836L5.16699 39.0641L23.0239 35.806L24.8577 35.4714L23.1026 34.8434L6.03216 28.7349L24.0048 31.3642L25.8406 31.6328L24.3883 30.4781L10.2451 19.233L26.3965 27.4764L28.0341 28.3122L27.0454 26.7622L17.3631 11.5835L29.9391 24.5628L31.2061 25.8704L30.7846 24.0992L26.6264 6.62399L34.249 22.9378L35.015 24.5772L35.1994 22.7771L37.0301 4.90647L38.8607 22.7771Z" fill="#B7BDC0" stroke="#1E1E1E"/>
<path d="M69.4681 38.7716C69.4681 46.9698 62.7169 53.6287 54.3727 53.6287C46.0285 53.6287 39.2773 46.9698 39.2773 38.7716C39.2773 30.5735 46.0285 23.9146 54.3727 23.9146C62.7169 23.9146 69.4681 30.5735 69.4681 38.7716Z" fill="#5FC194" stroke="#1E1E1E"/>
<path d="M39.3601 71.0334C38.4932 62.8796 44.5037 55.5647 52.8024 54.7092C61.101 53.8536 68.5197 59.7841 69.3866 67.9378C70.2535 76.0916 64.243 83.4065 55.9444 84.262C47.6457 85.1176 40.227 79.1871 39.3601 71.0334Z" fill="#383F43" stroke="#1E1E1E"/>
<path d="M70.7376 69.744C62.3934 69.744 55.6423 63.085 55.6423 54.8869C55.6423 46.6888 62.3934 40.0298 70.7376 40.0298C79.0819 40.0298 85.833 46.6888 85.833 54.8869C85.833 63.085 79.0819 69.744 70.7376 69.744Z" fill="#383F43" stroke="#1E1E1E"/>
<path d="M37.9759 40.1103C46.2746 39.2548 53.6932 45.1852 54.5601 53.339C55.427 61.4927 49.4165 68.8076 41.1179 69.6632C32.8192 70.5187 25.4006 64.5883 24.5337 56.4345C23.6668 48.2808 29.6772 40.9659 37.9759 40.1103Z" fill="#5FC194" stroke="#1E1E1E"/>
<circle r="14.9767" transform="matrix(0.712529 0.701643 -0.712529 0.701643 65.9453 43.4919)" fill="#B7BDC0" stroke="#1E1E1E"/>
<path d="M32.164 55.8522C37.4106 49.4774 46.914 48.496 53.3907 53.6649C59.8675 58.8339 60.8608 68.1923 55.6141 74.5672C50.3675 80.942 40.8642 81.9233 34.3874 76.7544C27.9106 71.5854 26.9173 62.227 32.164 55.8522Z" fill="#B7BDC0" stroke="#1E1E1E"/>
<circle r="14.9767" transform="matrix(-0.712529 0.701643 -0.712529 -0.701643 65.9439 66.2819)" fill="#5FC194" stroke="#1E1E1E"/>
<path d="M53.3901 33.0184C59.8668 38.1873 60.8602 47.5457 55.6135 53.9206C50.3668 60.2954 40.8635 61.2767 34.3867 56.1078C27.91 50.9388 26.9167 41.5804 32.1633 35.2056C37.41 28.8308 46.9133 27.8494 53.3901 33.0184Z" fill="#5FC194" stroke="#1E1E1E"/>
</svg>
