<svg width="88" height="88" viewBox="0 0 88 88" fill="none" xmlns="http://www.w3.org/2000/svg">
<circle cx="40.894" cy="51.103" r="17.7673" transform="rotate(-140.977 40.894 51.103)" fill="#383F43" stroke="#1E1E1E"/>
<circle cx="52.3022" cy="39.9334" r="17.7673" transform="rotate(-140.977 52.3022 39.9334)" fill="#B7BDC0" stroke="#1E1E1E"/>
<circle cx="61.6323" cy="51.103" r="17.7673" transform="rotate(-140.977 61.6323 51.103)" fill="#5FC194" stroke="#1E1E1E"/>
<mask id="path-4-inside-1_699_2302" fill="white">
<path fill-rule="evenodd" clip-rule="evenodd" d="M50.263 78.8763C35.9191 73.7825 25.6477 60.0907 25.6477 43.9999C25.6477 27.9092 35.9189 14.2175 50.2626 9.12357C46.3905 7.7485 42.2216 7 37.8779 7C17.4434 7 0.87793 23.5655 0.87793 44C0.87793 64.4345 17.4434 81 37.8779 81C42.2218 81 46.3908 80.2514 50.263 78.8763Z"/>
</mask>
<path fill-rule="evenodd" clip-rule="evenodd" d="M50.263 78.8763C35.9191 73.7825 25.6477 60.0907 25.6477 43.9999C25.6477 27.9092 35.9189 14.2175 50.2626 9.12357C46.3905 7.7485 42.2216 7 37.8779 7C17.4434 7 0.87793 23.5655 0.87793 44C0.87793 64.4345 17.4434 81 37.8779 81C42.2218 81 46.3908 80.2514 50.263 78.8763Z" fill="#5FC194"/>
<path d="M50.263 78.8763L50.5977 79.8186L53.2512 78.8763L50.5976 77.934L50.263 78.8763ZM50.2626 9.12357L50.5973 10.0659L53.2508 9.12355L50.5973 8.18122L50.2626 9.12357ZM50.5976 77.934C36.6401 72.9773 26.6477 59.6542 26.6477 43.9999H24.6477C24.6477 60.5271 35.1982 74.5877 49.9284 79.8186L50.5976 77.934ZM26.6477 43.9999C26.6477 28.3456 36.6399 15.0226 50.5973 10.0659L49.928 8.18123C35.198 13.4123 24.6477 27.4727 24.6477 43.9999H26.6477ZM37.8779 8C42.106 8 46.1618 8.72847 49.928 10.0659L50.5973 8.18122C46.6192 6.76854 42.3372 6 37.8779 6V8ZM1.87793 44C1.87793 24.1177 17.9957 8 37.8779 8V6C16.8911 6 -0.12207 23.0132 -0.12207 44H1.87793ZM37.8779 80C17.9957 80 1.87793 63.8823 1.87793 44H-0.12207C-0.12207 64.9868 16.8911 82 37.8779 82V80ZM49.9283 77.934C46.1621 79.2715 42.1062 80 37.8779 80V82C42.3374 82 46.6195 81.2314 50.5977 79.8186L49.9283 77.934Z" fill="#1E1E1E" mask="url(#path-4-inside-1_699_2302)"/>
</svg>
