<svg width="88" height="88" viewBox="0 0 88 88" fill="none" xmlns="http://www.w3.org/2000/svg">
<rect x="15.3999" y="36.5805" width="42.5366" height="5.56846" rx="2.78423" transform="rotate(-32.728 15.3999 36.5805)" fill="#383F43" stroke="#1E1E1E"/>
<rect x="18.2556" y="41.305" width="42.5366" height="5.56846" rx="2.78423" transform="rotate(32.9008 18.2556 41.305)" fill="#383F43" stroke="#1E1E1E"/>
<circle cx="54.5118" cy="14.9746" r="12.8477" fill="#B7BDC0" stroke="#1E1E1E"/>
<circle cx="14.2432" cy="40.7649" r="12.8477" fill="#B7BDC0" stroke="#1E1E1E"/>
<path d="M67.3594 69.0442C67.3594 76.0068 61.6154 81.6657 54.5118 81.6657C47.4081 81.6657 41.6641 76.0068 41.6641 69.0442C41.6641 62.0816 47.4081 56.4227 54.5118 56.4227C61.6154 56.4227 67.3594 62.0816 67.3594 69.0442Z" fill="#B7BDC0" stroke="#1E1E1E"/>
<path d="M34.7791 84.1208C35.0334 85.458 35.0334 86.3728 35.0334 86.3728C35.0334 86.3728 35.0335 85.458 35.2878 84.1208H34.7791ZM34.7791 84.1208C34.8446 83.7652 34.9278 83.3784 35.0334 82.9696L34.7791 84.1208ZM35.0336 64.5148C35.2814 65.4737 35.6528 66.5539 36.2101 67.6374C37.0515 69.2733 38.3204 70.9237 40.2309 72.1669C41.2566 72.8343 42.4587 73.3788 43.8658 73.7423L35.0336 64.5148ZM35.0336 64.5148C34.9279 64.106 34.8447 63.7192 34.7792 63.3637C35.0334 62.0267 35.0334 61.1121 35.0334 61.1121C35.0334 61.1121 35.0336 62.0267 35.2879 63.3637C35.2224 63.7192 35.1392 64.106 35.0336 64.5148ZM26.2015 73.7425C25.8214 73.6443 25.4263 73.5593 25.0157 73.4887C24.1168 73.6486 23.1373 73.7375 22.0699 73.7415H22.0335V73.7425V73.7434H22.0699C23.1373 73.7474 24.1168 73.8363 25.0157 73.9962C25.4263 73.9256 25.8214 73.8406 26.2015 73.7425Z" fill="#5FC194" stroke="#1E1E1E"/>
<path d="M12.7259 29.319C12.4471 29.8788 12.2362 30.4369 12.0766 30.9609C11.9171 30.4369 11.7062 29.8788 11.4273 29.319C10.8496 28.1593 9.97514 26.9832 8.65415 26.0958C8.06644 25.701 7.39614 25.3673 6.63293 25.1175C7.39614 24.8676 8.06644 24.5339 8.65415 24.1392C9.97514 23.2518 10.8496 22.0757 11.4273 20.9159C11.7062 20.3561 11.9172 19.7979 12.0767 19.2737C12.2364 19.7979 12.4473 20.3561 12.7263 20.916C13.3041 22.0757 14.1786 23.2518 15.4997 24.1392C16.0873 24.5339 16.7576 24.8676 17.5207 25.1174C16.7573 25.3672 16.0869 25.701 15.4991 26.0958C14.1781 26.9832 13.3037 28.1593 12.7259 29.319Z" fill="#5FC194" stroke="#1E1E1E"/>
<path d="M72.9219 28.7313C72.1064 30.4082 71.6044 32.0803 71.2949 33.5038C70.9855 32.0803 70.4834 30.4082 69.6679 28.7313C68.6015 26.5384 66.9935 24.3265 64.5707 22.6593C63.1052 21.6508 61.3524 20.8492 59.2594 20.3687C61.3524 19.8883 63.1052 19.0866 64.5707 18.0782C66.9935 16.411 68.6015 14.1991 69.6679 12.0062C70.4835 10.329 70.9856 8.65668 71.2951 7.23305C71.6046 8.65669 72.1068 10.329 72.9226 12.0062C73.9891 14.1991 75.5972 16.411 78.0202 18.0782C79.4856 19.0865 81.2383 19.8881 83.3311 20.3686C81.2378 20.8491 79.4848 21.6507 78.0191 22.6593C75.5963 24.3265 73.9884 26.5384 72.9219 28.7313Z" fill="#5FC194" stroke="#1E1E1E"/>
<circle cx="14.6949" cy="40.3126" r="3.79841" fill="#5FC194" stroke="#1E1E1E"/>
<path d="M58.7632 68.8178C58.7632 70.8918 56.9857 72.6162 54.7385 72.6162C52.4913 72.6162 50.7139 70.8918 50.7139 68.8178C50.7139 66.7439 52.4913 65.0194 54.7385 65.0194C56.9857 65.0194 58.7632 66.7439 58.7632 68.8178Z" fill="#5FC194" stroke="#1E1E1E"/>
<circle cx="54.7385" cy="14.7484" r="4.02464" fill="#5FC194" stroke="#1E1E1E"/>
</svg>
