<svg width="88" height="88" viewBox="0 0 88 88" fill="none" xmlns="http://www.w3.org/2000/svg">
<g clip-path="url(#clip0_702_3346)">
<path d="M42.149 44.0782C42.149 48.2846 42.475 52.2887 42.7819 55.9124C42.7942 56.0571 42.8064 56.2011 42.8186 56.3445C43.1122 59.8042 43.3738 62.8876 43.3091 65.4872C43.2414 68.2054 42.8165 70.292 41.7854 71.696C40.7822 73.062 39.1332 73.8727 36.3716 73.8727C16.562 73.8727 0.661133 60.4534 0.661133 44.0782C0.661133 27.703 16.562 14.2837 36.3716 14.2837C37.6007 14.2837 38.5876 14.9734 39.3973 16.4099C40.2163 17.8628 40.8064 20.0088 41.2208 22.732C42.0485 28.1699 42.149 35.7041 42.149 44.0782Z" fill="#5FC194" stroke="#1E1E1E"/>
<path d="M53.7162 44.0782C53.7162 52.375 51.8436 59.8617 48.8414 65.2565C45.8298 70.668 41.749 73.8727 37.3571 73.8727C32.9652 73.8727 28.8844 70.668 25.8729 65.2565C22.8706 59.8617 20.998 52.375 20.998 44.0782C20.998 35.7813 22.8706 28.2947 25.8729 22.8999C28.8844 17.4883 32.9652 14.2837 37.3571 14.2837C41.749 14.2837 45.8298 17.4883 48.8414 22.8999C51.8436 28.2947 53.7162 35.7813 53.7162 44.0782Z" fill="#383F43" stroke="#1E1E1E"/>
<mask id="path-3-inside-1_702_3346" fill="white">
<path d="M88.0848 44.2038C88.1103 44.2038 88.1358 44.2018 88.1613 44.2018H88.0102C61.4762 44.0998 61.4722 17.5157 61.4722 17.5157C61.4722 17.5157 61.4703 44.0998 34.9362 44.2018H34.7852C34.8107 44.2018 34.8362 44.2038 34.8617 44.2038C34.8362 44.2038 34.8107 44.2058 34.7852 44.2058H34.9362C61.4703 44.3078 61.4722 70.8919 61.4722 70.8919C61.4722 70.8919 61.4742 44.3078 88.0083 44.2058H88.1593C88.1358 44.2038 88.1103 44.2038 88.0848 44.2038Z"/>
</mask>
<path d="M88.0848 44.2038C88.1103 44.2038 88.1358 44.2018 88.1613 44.2018H88.0102C61.4762 44.0998 61.4722 17.5157 61.4722 17.5157C61.4722 17.5157 61.4703 44.0998 34.9362 44.2018H34.7852C34.8107 44.2018 34.8362 44.2038 34.8617 44.2038C34.8362 44.2038 34.8107 44.2058 34.7852 44.2058H34.9362C61.4703 44.3078 61.4722 70.8919 61.4722 70.8919C61.4722 70.8919 61.4742 44.3078 88.0083 44.2058H88.1593C88.1358 44.2038 88.1103 44.2038 88.0848 44.2038Z" fill="#5FC194"/>
<path d="M88.1613 44.2018L88.5843 44.413L88.9357 43.7091L88.1492 43.7292L88.1613 44.2018ZM88.0102 44.2018L88.0227 43.7292L87.7219 43.7213L87.5874 43.9904L88.0102 44.2018ZM34.9362 44.2018H35.409V43.7166L34.924 43.7292L34.9362 44.2018ZM34.7852 44.2018L34.7973 43.7292L34.3124 43.7168V44.2018H34.7852ZM34.7852 44.2058H34.3124V44.6908L34.7973 44.6784L34.7852 44.2058ZM34.9362 44.2058L34.924 44.6784L35.409 44.691V44.2058H34.9362ZM88.0083 44.2058L87.5854 43.9943L87.2333 44.6986L88.0204 44.6784L88.0083 44.2058ZM88.1593 44.2058L88.1469 44.6784L88.4479 44.6863L88.5823 44.4169L88.1593 44.2058ZM88.0969 44.6764L88.1734 44.6745L88.1492 43.7292L88.0726 43.7312L88.0969 44.6764ZM88.0972 43.7312L88.0227 43.7292L87.9978 44.6745L88.0723 44.6764L88.0972 43.7312ZM88.0727 43.7312L87.9961 43.7332L88.0204 44.6784L88.0969 44.6764L88.0727 43.7312ZM88.0723 44.6764L88.1469 44.6784L88.1718 43.7332L88.0972 43.7312L88.0723 44.6764ZM88.1492 43.7292L87.9961 43.7332L88.0204 44.6784L88.1734 44.6745L88.1492 43.7292ZM87.7383 43.9907L87.7363 43.9946L88.5823 44.4169L88.5843 44.413L87.7383 43.9907ZM87.5874 43.9904L87.5854 43.9943L88.4311 44.4172L88.4331 44.4133L87.5874 43.9904ZM87.9978 44.6745L88.1469 44.6784L88.1718 43.7332L88.0227 43.7292L87.9978 44.6745ZM34.9238 43.7292L34.8492 43.7312L34.8741 44.6764L34.9487 44.6745L34.9238 43.7292ZM34.924 43.7292L34.7729 43.7332L34.7974 44.6784L34.9485 44.6745L34.924 43.7292ZM34.4635 44.2018V44.2058H35.409V44.2018H34.4635ZM34.773 44.6745L34.8495 44.6764L34.8738 43.7312L34.7973 43.7292L34.773 44.6745ZM34.3124 44.2018V44.2058H35.2579V44.2018H34.3124ZM34.7729 44.6745L34.924 44.6784L34.9485 43.7332L34.7974 43.7292L34.7729 44.6745ZM34.8496 43.7312L34.773 43.7332L34.7973 44.6784L34.8738 44.6764L34.8496 43.7312ZM34.8492 44.6764L34.9238 44.6784L34.9487 43.7332L34.8741 43.7312L34.8492 44.6764ZM88.0102 44.2018L88.0066 45.1474H88.0102V44.2018ZM61.4722 17.5157L62.4178 17.5156L60.5267 17.5157L61.4722 17.5157ZM34.9362 44.2018V45.1474L34.9399 45.1474L34.9362 44.2018ZM34.9362 44.2058L34.9399 43.2602H34.9362V44.2058ZM61.4722 70.8919L60.5267 70.8919H62.4178L61.4722 70.8919ZM88.0083 44.2058V43.2602L88.0046 43.2602L88.0083 44.2058ZM88.1593 44.2058V45.1513L88.2379 43.2635L88.1593 44.2058ZM88.0848 45.1494C88.103 45.1494 88.119 45.149 88.1312 45.1487C88.1429 45.1483 88.1538 45.1479 88.1594 45.1477C88.1665 45.1474 88.1684 45.1473 88.1695 45.1473C88.17 45.1473 88.1668 45.1474 88.1613 45.1474V43.2563C88.143 43.2563 88.1271 43.2567 88.1149 43.257C88.1032 43.2573 88.0923 43.2578 88.0867 43.258C88.0795 43.2583 88.0777 43.2583 88.0766 43.2584C88.076 43.2584 88.0793 43.2583 88.0848 43.2583V45.1494ZM88.1613 43.2563H88.0102V45.1474H88.1613V43.2563ZM88.0139 43.2563C81.5462 43.2314 76.7574 41.5958 73.1968 39.2042C69.6303 36.8085 67.2405 33.6166 65.6373 30.3989C64.0322 27.1776 63.2248 23.948 62.8202 21.5159C62.6182 20.3021 62.5175 19.2929 62.4674 18.5909C62.4423 18.24 62.4299 17.9664 62.4238 17.7827C62.4207 17.691 62.4192 17.6217 62.4185 17.5767C62.4181 17.5541 62.4179 17.5376 62.4179 17.5274C62.4178 17.5223 62.4178 17.5187 62.4178 17.5167C62.4178 17.5157 62.4178 17.5152 62.4178 17.515C62.4178 17.5149 62.4178 17.515 62.4178 17.515C62.4178 17.5152 62.4178 17.5156 61.4722 17.5157C60.5267 17.5159 60.5267 17.5164 60.5267 17.5171C60.5267 17.5175 60.5267 17.5182 60.5267 17.519C60.5267 17.5204 60.5267 17.5222 60.5267 17.5244C60.5267 17.5289 60.5268 17.535 60.5268 17.5426C60.527 17.558 60.5272 17.5796 60.5277 17.6074C60.5286 17.6629 60.5303 17.743 60.5338 17.8459C60.5406 18.0518 60.5542 18.3493 60.5811 18.7256C60.6348 19.4778 60.7417 20.5463 60.9547 21.8263C61.38 24.3819 62.2319 27.8047 63.9447 31.2422C65.6592 34.6833 68.2455 38.1565 72.1424 40.774C76.0453 43.3956 81.2072 45.1212 88.0066 45.1474L88.0139 43.2563ZM61.4722 17.5157C60.5267 17.5157 60.5267 17.5153 60.5267 17.5151C60.5267 17.5151 60.5267 17.5149 60.5267 17.515C60.5267 17.5152 60.5267 17.5158 60.5267 17.5168C60.5267 17.5188 60.5267 17.5223 60.5266 17.5275C60.5266 17.5377 60.5264 17.5542 60.526 17.5767C60.5253 17.6218 60.5238 17.691 60.5207 17.7828C60.5146 17.9664 60.5022 18.2401 60.4772 18.5909C60.4271 19.293 60.3265 20.3022 60.1246 21.516C59.7201 23.9481 58.913 27.1776 57.3082 30.3989C55.7052 33.6166 53.3156 36.8086 49.7493 39.2042C46.189 41.5958 41.4003 43.2314 34.9326 43.2563L34.9399 45.1474C41.7392 45.1212 46.901 43.3956 50.8038 40.774C54.7005 38.1564 57.2866 34.6833 59.0008 31.2422C60.7133 27.8047 61.565 24.3818 61.9901 21.8262C62.203 20.5462 62.3098 19.4777 62.3635 18.7255C62.3903 18.3493 62.4039 18.0517 62.4108 17.8458C62.4142 17.7429 62.4159 17.6628 62.4168 17.6073C62.4173 17.5795 62.4175 17.5579 62.4176 17.5426C62.4177 17.5349 62.4177 17.5288 62.4178 17.5244C62.4178 17.5221 62.4178 17.5203 62.4178 17.5189C62.4178 17.5182 62.4178 17.5174 62.4178 17.517C62.4178 17.5164 62.4178 17.5158 61.4722 17.5157ZM34.9362 43.2563H34.7852V45.1474H34.9362V43.2563ZM34.7852 45.1474C34.7797 45.1474 34.7764 45.1473 34.777 45.1473C34.7781 45.1473 34.7799 45.1474 34.787 45.1477C34.7927 45.1479 34.8036 45.1483 34.8153 45.1487C34.8274 45.149 34.8434 45.1494 34.8617 45.1494V43.2583C34.8672 43.2583 34.8704 43.2584 34.8698 43.2584C34.8688 43.2583 34.8669 43.2583 34.8598 43.258C34.8542 43.2578 34.8433 43.2573 34.8316 43.257C34.8194 43.2567 34.8034 43.2563 34.7852 43.2563V45.1474ZM34.8617 43.2583C34.8434 43.2583 34.8275 43.2586 34.8153 43.259C34.8036 43.2593 34.7927 43.2597 34.7871 43.26C34.78 43.2602 34.7781 43.2603 34.777 43.2603C34.7765 43.2603 34.7797 43.2602 34.7852 43.2602V45.1513C34.8034 45.1513 34.8194 45.151 34.8315 45.1506C34.8432 45.1503 34.8541 45.1499 34.8597 45.1496C34.8669 45.1494 34.8687 45.1493 34.8698 45.1493C34.8704 45.1492 34.8672 45.1494 34.8617 45.1494V43.2583ZM34.7852 45.1513H34.9362V43.2602H34.7852V45.1513ZM34.9326 45.1513C41.4003 45.1762 46.189 46.8118 49.7493 49.2034C53.3156 51.5991 55.7052 54.791 57.3082 58.0087C58.913 61.23 59.7201 64.4596 60.1246 66.8917C60.3265 68.1055 60.4271 69.1147 60.4772 69.8167C60.5022 70.1675 60.5146 70.4412 60.5207 70.6248C60.5238 70.7166 60.5253 70.7858 60.526 70.8309C60.5264 70.8534 60.5266 70.8699 60.5266 70.8802C60.5267 70.8853 60.5267 70.8889 60.5267 70.8908C60.5267 70.8918 60.5267 70.8924 60.5267 70.8926C60.5267 70.8927 60.5267 70.8925 60.5267 70.8926C60.5267 70.8923 60.5267 70.8919 61.4722 70.8919C62.4178 70.8918 62.4178 70.8912 62.4178 70.8906C62.4178 70.8902 62.4178 70.8895 62.4178 70.8887C62.4178 70.8873 62.4178 70.8855 62.4178 70.8833C62.4177 70.8788 62.4177 70.8727 62.4176 70.8651C62.4175 70.8497 62.4173 70.8281 62.4168 70.8003C62.4159 70.7448 62.4142 70.6647 62.4108 70.5618C62.4039 70.3559 62.3903 70.0584 62.3635 69.6821C62.3098 68.9299 62.203 67.8614 61.9901 66.5814C61.565 64.0258 60.7133 60.6029 59.0008 57.1655C57.2866 53.7244 54.7005 50.2512 50.8038 47.6336C46.901 45.012 41.7392 43.2864 34.9399 43.2602L34.9326 45.1513ZM61.4722 70.8919C62.4178 70.8919 62.4178 70.8923 62.4178 70.8926C62.4178 70.8925 62.4178 70.8927 62.4178 70.8926C62.4178 70.8924 62.4178 70.8918 62.4178 70.8908C62.4178 70.8889 62.4178 70.8853 62.4179 70.8802C62.4179 70.8699 62.4181 70.8534 62.4185 70.8309C62.4192 70.7858 62.4207 70.7166 62.4238 70.6248C62.4299 70.4412 62.4423 70.1675 62.4673 69.8167C62.5174 69.1147 62.618 68.1055 62.8199 66.8917C63.2244 64.4596 64.0315 61.23 65.6363 58.0087C67.2393 54.791 69.6288 51.5991 73.1952 49.2034C76.7555 46.8118 81.5442 45.1762 88.0119 45.1513L88.0046 43.2602C81.2052 43.2864 76.0434 45.012 72.1407 47.6336C68.244 50.2512 65.6579 53.7244 63.9436 57.1655C62.2312 60.6029 61.3795 64.0258 60.9544 66.5814C60.7415 67.8614 60.6347 68.9299 60.581 69.6821C60.5542 70.0584 60.5406 70.3559 60.5337 70.5618C60.5303 70.6647 60.5285 70.7448 60.5276 70.8003C60.5272 70.8281 60.527 70.8497 60.5268 70.8651C60.5268 70.8727 60.5267 70.8788 60.5267 70.8833C60.5267 70.8855 60.5267 70.8873 60.5267 70.8887C60.5267 70.8895 60.5267 70.8902 60.5267 70.8906C60.5267 70.8912 60.5267 70.8918 61.4722 70.8919ZM88.0083 45.1513H88.1593V43.2602H88.0083V45.1513ZM88.2379 43.2635C88.1679 43.2577 88.1014 43.2583 88.0848 43.2583V45.1494C88.0915 45.1494 88.0956 45.1494 88.0993 45.1494C88.101 45.1494 88.1022 45.1494 88.103 45.1494C88.1039 45.1494 88.1043 45.1494 88.1043 45.1494C88.1043 45.1494 88.1038 45.1494 88.1029 45.1494C88.102 45.1493 88.1005 45.1493 88.0986 45.1492C88.095 45.149 88.0889 45.1487 88.0808 45.148L88.2379 43.2635Z" fill="#1E1E1E" mask="url(#path-3-inside-1_702_3346)"/>
</g>
<defs>
<clipPath id="clip0_702_3346">
<rect width="88" height="88" fill="white"/>
</clipPath>
</defs>
</svg>
