<svg width="166" height="166" viewBox="0 0 166 166" fill="none" xmlns="http://www.w3.org/2000/svg">
<rect x="28.437" y="68.8708" width="81.1258" height="11.3905" rx="5.69525" transform="rotate(-32.728 28.437 68.8708)" fill="#383F43" stroke="#1E1E1E"/>
<rect x="34.3045" y="77.3035" width="81.1258" height="11.3905" rx="5.69525" transform="rotate(32.9008 34.3045 77.3035)" fill="#383F43" stroke="#1E1E1E"/>
<path d="M127.508 28.2477C127.508 41.8773 116.459 52.9263 102.829 52.9263C89.1994 52.9263 78.1504 41.8773 78.1504 28.2477C78.1504 14.6181 89.1994 3.56909 102.829 3.56909C116.459 3.56909 127.508 14.6181 127.508 28.2477Z" fill="#B7BDC0" stroke="#1E1E1E"/>
<path d="M51.5447 76.8976C51.5447 90.5272 40.4957 101.576 26.8661 101.576C13.2365 101.576 2.1875 90.5272 2.1875 76.8976C2.1875 63.268 13.2365 52.219 26.8661 52.219C40.4957 52.219 51.5447 63.268 51.5447 76.8976Z" fill="#B7BDC0" stroke="#1E1E1E"/>
<path d="M127.508 130.243C127.508 143.628 116.467 154.494 102.829 154.494C89.1913 154.494 78.1504 143.628 78.1504 130.243C78.1504 116.857 89.1913 105.991 102.829 105.991C116.467 105.991 127.508 116.857 127.508 130.243Z" fill="#B7BDC0" stroke="#1E1E1E"/>
<path d="M68.6981 150.824C67.2755 153.591 66.5041 156.35 66.0854 158.529C65.6666 156.35 64.8953 153.591 63.4726 150.824C61.9131 147.792 59.567 144.743 56.0408 142.449C53.6912 140.92 50.8304 139.734 47.3513 139.105C50.8304 138.476 53.6912 137.291 56.0408 135.761C59.567 133.467 61.9131 130.418 63.4726 127.386C64.8954 124.619 65.6668 121.859 66.0855 119.68C66.5044 121.859 67.276 124.619 68.6991 127.386C70.2588 130.418 72.6051 133.467 76.1315 135.761C78.481 137.29 81.3415 138.476 84.8203 139.105C81.3408 139.733 78.4798 140.919 76.1299 142.449C72.6037 144.743 70.2576 147.792 68.6981 150.824Z" fill="#5FC194" stroke="#1E1E1E"/>
<path d="M24.403 55.5041C23.5908 57.1346 23.0903 58.7604 22.7815 60.1451C22.4728 58.7604 21.9723 57.1346 21.16 55.5041C20.0963 53.3687 18.4928 51.216 16.0784 49.5942C14.6327 48.6231 12.9069 47.8494 10.8496 47.3808C12.9069 46.9122 14.6327 46.1385 16.0784 45.1674C18.4928 43.5455 20.0963 41.3929 21.16 39.2575C21.9724 37.6268 22.473 36.0007 22.7817 34.6158C23.0905 36.0007 23.5911 37.6268 24.4037 39.2576C25.4676 41.3929 27.0712 43.5456 29.4858 45.1674C30.9313 46.1384 32.6571 46.912 34.7141 47.3807C32.6566 47.8493 30.9305 48.623 29.4847 49.5942C27.0703 51.216 25.4668 53.3687 24.403 55.5041Z" fill="#5FC194" stroke="#1E1E1E"/>
<path d="M165.91 37.9252V37.9228C165.911 37.9228 165.911 37.9228 165.911 37.9228C165.914 37.9228 165.92 37.9226 165.936 37.922C165.949 37.9215 165.974 37.9204 166.001 37.9204L165.91 37.9252ZM165.91 37.9252H165.824L165.824 37.9204C165.824 37.9204 165.824 37.9204 165.823 37.9204H165.822L165.91 37.9252ZM107.611 38.1713C106.202 38.3286 104.718 38.4143 103.157 38.4204L107.611 38.1713ZM107.611 38.1713C108.245 38.241 108.864 38.3251 109.469 38.4228C108.864 38.5205 108.245 38.6045 107.611 38.6743C106.202 38.517 104.718 38.4313 103.157 38.4252L107.611 38.1713ZM134.489 6.14307C134.489 6.14307 134.488 7.43208 134.237 9.49493C134.301 10.0303 134.383 10.6181 134.485 11.2492C134.486 11.2563 134.488 11.2634 134.489 11.2705C134.49 11.2634 134.491 11.2563 134.492 11.2492C134.595 10.6181 134.676 10.0303 134.74 9.49491L134.489 6.14307ZM159.509 38.4226C154.611 39.2133 150.64 40.896 147.424 43.1087C142.931 46.2004 139.943 50.3064 137.956 54.3914C135.975 58.4648 134.985 62.5282 134.489 65.5739L159.509 38.4226Z" fill="#5FC194" stroke="#1E1E1E"/>
<path d="M35.3281 76.0442C35.3281 80.2461 31.9217 83.6525 27.7197 83.6525C23.5177 83.6525 20.1113 80.2461 20.1113 76.0442C20.1113 71.8422 23.5177 68.4358 27.7197 68.4358C31.9217 68.4358 35.3281 71.8422 35.3281 76.0442Z" fill="#5FC194" stroke="#1E1E1E"/>
<path d="M111.291 129.815C111.291 133.994 107.718 137.424 103.256 137.424C98.7937 137.424 95.2207 133.994 95.2207 129.815C95.2207 125.637 98.7937 122.207 103.256 122.207C107.718 122.207 111.291 125.637 111.291 129.815Z" fill="#5FC194" stroke="#1E1E1E"/>
<path d="M111.291 27.8208C111.291 32.2584 107.694 35.8559 103.256 35.8559C98.8181 35.8559 95.2207 32.2584 95.2207 27.8208C95.2207 23.3831 98.8181 19.7856 103.256 19.7856C107.694 19.7856 111.291 23.3831 111.291 27.8208Z" fill="#5FC194" stroke="#1E1E1E"/>
</svg>
