<svg width="166" height="166" viewBox="0 0 166 166" fill="none" xmlns="http://www.w3.org/2000/svg">
<g clip-path="url(#clip0_427_7260)">
<path d="M79.9504 83.1474C79.9504 91.0613 80.5636 98.5973 81.1427 105.434C81.1662 105.711 81.1896 105.987 81.213 106.262C81.7657 112.776 82.2612 118.615 82.1385 123.544C82.0103 128.691 81.2074 132.744 79.1784 135.507C77.1773 138.232 73.9105 139.794 68.6089 139.794C31.0733 139.794 0.802734 114.353 0.802734 83.1474C0.802734 51.9423 31.0733 26.501 68.6089 26.501C71.1408 26.501 73.1269 27.942 74.7025 30.7373C76.2874 33.549 77.4101 37.6612 78.1944 42.814C79.7617 53.1112 79.9504 67.3583 79.9504 83.1474Z" fill="#5FC194" stroke="#1E1E1E"/>
<path d="M101.773 83.1474C101.773 98.8592 98.2275 113.059 92.521 123.313C86.8053 133.584 78.9887 139.794 70.4703 139.794C61.9519 139.794 54.1353 133.584 48.4196 123.313C42.7131 113.059 39.168 98.8592 39.168 83.1474C39.168 67.4356 42.7131 53.2359 48.4196 42.9819C54.1353 32.7111 61.9519 26.501 70.4703 26.501C78.9887 26.501 86.8053 32.7111 92.521 42.9819C98.2275 53.2359 101.773 67.4356 101.773 83.1474Z" fill="#383F43" stroke="#1E1E1E"/>
<path d="M166.304 82.9145C166.316 82.9152 166.328 82.916 166.34 82.917L166.304 83.7721V82.9145ZM166.304 82.9145V82.9079L166.021 82.9079C166.02 82.9079 166.02 82.9079 166.02 82.9079C153.59 82.86 144.298 79.7122 137.345 75.0415C130.388 70.3686 125.744 64.1524 122.642 57.9279C119.54 51.7015 117.986 45.4754 117.208 40.8019C116.82 38.4663 116.625 36.5215 116.528 35.1625C116.48 34.483 116.456 33.9502 116.444 33.5885C116.438 33.4076 116.434 33.2695 116.433 33.1772C116.432 33.1311 116.432 33.0964 116.432 33.0735L116.432 33.0482L166.304 82.9145ZM115.959 38.8444C116.047 39.5055 116.152 40.2118 116.276 40.9571C117.064 45.6923 118.64 52.0151 121.796 58.3495C124.953 64.6858 129.695 71.0425 136.817 75.8264C142.38 79.5626 149.376 82.3279 158.171 83.3842C149.375 84.4402 142.377 87.2057 136.814 90.9424C129.693 95.7263 124.951 102.083 121.794 108.419C118.638 114.754 117.063 121.077 116.275 125.812C116.151 126.556 116.047 127.262 115.959 127.923C115.871 127.262 115.766 126.556 115.642 125.812C114.855 121.077 113.279 114.754 110.123 108.419C106.967 102.083 102.225 95.7263 95.1032 90.9424C89.5408 87.206 82.5437 84.4406 73.7484 83.3844C82.5437 82.3282 89.5408 79.5628 95.1032 75.8264C102.225 71.0425 106.967 64.6858 110.123 58.3495C113.279 52.015 114.855 45.6923 115.642 40.9571C115.766 40.2118 115.871 39.5055 115.959 38.8444Z" fill="#5FC194" stroke="#1E1E1E" stroke-width="0.945538"/>
</g>
<defs>
<clipPath id="clip0_427_7260">
<rect width="166" height="166" fill="white"/>
</clipPath>
</defs>
</svg>
